<svg width="98" height="20" viewBox="0 0 98 20" fill="none" xmlns="http://www.w3.org/2000/svg">
<path d="M9 0.5L12.1158 5.2114L17.5595 6.71885L14.0416 11.1381L14.2901 16.7812L9 14.801L3.70993 16.7812L3.95845 11.1381L0.440492 6.71885L5.88415 5.2114L9 0.5Z" fill="#E60000"/>
<path d="M29 0.5L32.1158 5.2114L37.5595 6.71885L34.0416 11.1381L34.2901 16.7812L29 14.801L23.7099 16.7812L23.9584 11.1381L20.4405 6.71885L25.8842 5.2114L29 0.5Z" fill="#E60000"/>
<path d="M49 0.5L52.1158 5.2114L57.5595 6.71885L54.0416 11.1381L54.2901 16.7812L49 14.801L43.7099 16.7812L43.9584 11.1381L40.4405 6.71885L45.8842 5.2114L49 0.5Z" fill="#E60000"/>
<path d="M69 0.5L72.1158 5.2114L77.5595 6.71885L74.0416 11.1381L74.2901 16.7812L69 14.801L63.7099 16.7812L63.9584 11.1381L60.4405 6.71885L65.8842 5.2114L69 0.5Z" fill="#E60000"/>
<path d="M89 0.5L92.1158 5.2114L97.5595 6.71885L94.0416 11.1381L94.2901 16.7812L89 14.801L83.7099 16.7812L83.9584 11.1381L80.4405 6.71885L85.8842 5.2114L89 0.5Z" fill="#E60000"/>
</svg>
